Patient4_TMGait_0pt6_02_left_18_GRF.mot
version=1
nRows=45
nColumns=19
inDegrees=no
endheader
time	F1x	F1y	F1z	M1x	M1y	M1z	F2x	F2y	F2z	M2x	M2y	M2z	EC1x	EC1y	EC1z	EC2x	EC2y	EC2z
22.08	19.9833	-10.3526	4.8561	0.1467	5.0822	-14.1018	-37.5565	758.3706	-47.8973	273.4305	63.8949	802.6453	-0.0592	0.0182	-0.0073	-0.0462	0.0165	0.9585
22.0925	13.2889	-6.3198	3.3641	-0.15946	3.3124	-8.8886	-37.6118	758.9718	-50.0436	274.7787	66.6104	802.3855	-0.0592	0.0182	-0.0073	-0.0462	0.0165	0.9585
22.105	7.6409	-2.8651	2.0983	-0.43963	1.7994	-4.4126	-37.3913	761.2261	-51.7613	276.5246	68.6074	802.7646	-0.0592	0.0182	-0.0073	-0.0462	0.0165	0.9585
22.1175	3.3306	-0.17992	1.1336	-0.67716	0.63501	-0.90959	-36.8036	764.8144	-52.9223	278.4672	69.693	803.4874	-0.0592	0.0182	-0.0073	-0.0462	0.0165	0.9585
22.13	0.36312	1.7138	0.46413	-0.86137	-0.16824	1.5701	-35.7607	769.0152	-53.5044	280.3303	69.8312	803.9481	-0.0592	0.0182	-0.0073	-0.0462	0.0165	0.9585
22.1425	-1.4861	2.9374	0.041453	-0.99597	-0.66423	3.1883	-34.1673	772.9987	-53.5963	281.8357	69.1173	803.4814	-0.0592	0.0182	-0.0073	-0.0462	0.0165	0.9585
22.155	-2.4706	3.6239	-0.19086	-1.0813	-0.92378	4.107	-31.9433	776.0103	-53.305	282.7547	67.6778	801.5027	-0.0592	0.0182	-0.0073	-0.0462	0.0165	0.9585
22.1675	-2.8735	3.8974	-0.29637	-1.1125	-1.0185	4.4918	-29.0635	777.5089	-52.7682	282.9413	65.6854	797.6423	-0.0592	0.0182	-0.0073	-0.0462	0.0165	0.9585
22.18	-2.9284	3.8404	-0.32333	-1.0769	-1.016	4.4511	-25.5734	777.2288	-52.116	282.3458	63.3264	791.7904	-0.0592	0.0182	-0.0073	-0.0462	0.0165	0.9585
22.1925	-2.809	3.4789	-0.31333	-0.95234	-0.9649	4.031	-21.6066	775.1673	-51.4718	281.0088	60.7977	784.0874	-0.0592	0.0182	-0.0073	-0.0462	0.0165	0.9585
22.205	-2.6584	2.8005	-0.28481	-0.71734	-0.9106	3.258	-17.3241	771.5404	-50.9263	279.0451	58.2646	774.8667	-0.0592	0.0182	-0.0073	-0.0462	0.0165	0.9585
22.2175	-2.5172	1.7736	-0.25244	-0.35106	-0.86897	2.0987	-12.9139	766.7033	-50.5384	276.6104	55.8613	764.587	-0.0592	0.0182	-0.0073	-0.0462	0.0165	0.9585
22.23	-2.4225	0.38775	-0.21991	0.15991	-0.85592	0.55471	-8.5473	761.0176	-50.3646	273.8582	53.704	753.6778	-0.0592	0.0182	-0.0073	-0.0462	0.0165	0.9585
22.2425	-2.3057	-1.3427	-0.19268	0.81086	-0.84658	-1.3897	-4.3711	754.8557	-50.4491	270.9418	51.8835	742.5567	-0.0592	0.0182	-0.0073	-0.0462	0.0165	0.9585
22.255	-2.123	-3.3001	-0.16738	1.5567	-0.81373	-3.595	-0.47436	748.5747	-50.8487	268.0065	50.4828	731.6	-0.0592	0.0182	-0.0073	-0.0462	0.0165	0.9585
22.2675	-1.7252	-5.2344	-0.15486	2.2923	-0.68482	-5.802	3.086	742.4776	-51.5976	265.1771	49.5435	721.0824	-0.0592	0.0182	-0.0073	-0.0462	0.0165	0.9585
22.28	-0.99615	-6.6426	-0.14857	2.8226	-0.40776	-7.4327	6.3132	736.7927	-52.7169	262.5495	49.0695	711.1658	-0.0592	0.0182	-0.0073	-0.0462	0.0165	0.9585
22.2925	0.24655	-6.7485	-0.16996	2.8418	0.10908	-7.629	9.2662	731.6591	-54.172	260.1882	48.9938	701.9082	-0.0592	0.0182	-0.0073	-0.0462	0.0165	0.9585
22.305	2.1373	-4.4264	-0.21825	1.9113	0.9204	-5.1077	12.0093	727.178	-55.8827	258.1397	49.2089	693.348	-0.0592	0.0182	-0.0073	-0.0462	0.0165	0.9585
22.3175	4.7908	1.793	-0.31618	-0.54255	2.0852	1.7784	14.6218	723.4038	-57.7337	256.4285	49.5801	685.4879	-0.0592	0.0182	-0.0073	-0.0462	0.0165	0.9585
22.33	8.1679	13.6122	-0.45002	-5.1843	3.5717	14.9437	17.0867	720.3205	-59.5887	255.0427	49.9877	678.3331	-0.0592	0.0182	-0.0073	-0.0462	0.0165	0.9585
22.3425	12.0065	32.7471	-0.61604	-12.6837	5.2638	36.3087	19.3456	717.6902	-61.2869	253.8851	50.3081	671.7138	-0.0592	0.0182	-0.0073	-0.0462	0.0165	0.9585
22.355	15.6972	60.4455	-0.76474	-23.53	6.8645	67.2692	21.2445	714.971	-62.6325	252.7419	50.4205	665.2458	-0.0592	0.0182	-0.0073	-0.0462	0.0165	0.9585
22.3675	18.1386	96.8169	-0.84522	-37.767	7.8757	107.9665	22.6568	711.2057	-63.4048	251.2518	50.1804	658.1703	-0.0592	0.0182	-0.0073	-0.0462	0.0165	0.9585
22.38	17.7978	139.9356	-0.73833	-54.6441	7.5698	156.2556	23.4924	705.0618	-63.3741	248.9246	49.427	649.3896	-0.0592	0.0182	-0.0073	-0.0462	0.0165	0.9585
22.3925	13.4415	185.3773	-0.26789	-72.4337	5.2845	207.2047	23.8118	695.0084	-62.3528	245.2147	47.9882	637.5617	-0.0592	0.0182	-0.0073	-0.0462	0.0165	0.9585
22.405	6.2156	227.6227	1.143	-88.941	0.83103	254.6158	23.8034	679.8282	-60.2461	239.7004	45.733	621.5576	-0.0592	0.0182	-0.0073	-0.0462	0.0165	0.9585
22.4175	-1.5392	262.284	3.812	-102.4305	-5.1763	293.3492	23.7267	658.986	-57.0904	232.2078	42.6215	600.8066	-0.0592	0.0182	-0.0073	-0.0462	0.0165	0.9585
22.43	-8.1711	288.1689	7.2273	-112.4479	-11.5161	321.8023	23.8589	632.5327	-53.1207	222.7648	38.7806	575.2432	-0.0592	0.0182	-0.0073	-0.0462	0.0165	0.9585
22.4425	-13.0783	307.2406	10.9125	-119.7843	-17.4073	342.0873	24.3872	600.8188	-48.6147	211.4986	34.3945	545.1043	-0.0592	0.0182	-0.0073	-0.0462	0.0165	0.9585
22.455	-16.211	323.0509	14.237	-125.8648	-22.1552	358.1167	25.3873	564.2559	-43.7997	198.5541	29.6423	510.7215	-0.0592	0.0182	-0.0073	-0.0462	0.0165	0.9585
22.4675	-17.8172	339.1506	17.0272	-132.091	-25.6629	373.8636	26.7531	523.1918	-38.7411	184.0562	24.619	472.4233	-0.0592	0.0182	-0.0073	-0.0462	0.0165	0.9585
22.48	-18.1871	358.2003	19.1598	-139.5152	-27.9378	392.1858	28.2539	477.8698	-33.4138	168.0954	19.3896	430.466	-0.0592	0.0182	-0.0073	-0.0462	0.0165	0.9585
22.4925	-17.6125	381.9407	20.9101	-148.791	-29.3881	414.9368	29.5219	428.5329	-27.7965	150.7589	14.0575	385.1356	-0.0592	0.0182	-0.0073	-0.0462	0.0165	0.9585
22.505	-16.2564	411.3494	22.5299	-160.2711	-30.3694	443.1235	30.1161	375.6242	-22.0155	132.1964	8.8727	336.8711	-0.0592	0.0182	-0.0073	-0.0462	0.0165	0.9585
22.5175	-14.2416	446.8197	24.442	-174.0549	-31.382	477.1557	29.5867	320.0909	-16.3462	112.7228	4.2046	286.5593	-0.0592	0.0182	-0.0073	-0.0462	0.0165	0.9585
22.53	-11.6626	488.0257	26.9844	-189.9717	-32.8242	516.6221	27.6298	263.5117	-11.1794	92.8726	0.4691	235.6054	-0.0592	0.0182	-0.0073	-0.0462	0.0165	0.9585
22.5425	-8.7488	533.8567	30.4906	-207.5553	-35.1224	560.3601	24.2094	208.1075	-6.857	73.4113	-2.0541	185.9509	-0.0592	0.0182	-0.0073	-0.0462	0.0165	0.9585
22.555	-5.795	582.6352	35.0496	-226.1399	-38.4738	606.6119	19.6863	156.4628	-3.5949	55.2414	-3.3123	139.8218	-0.0592	0.0182	-0.0073	-0.0462	0.0165	0.9585
22.5675	-3.0899	632.3513	40.5121	-244.953	-42.8226	653.3254	14.6941	110.9414	-1.4016	39.2021	-3.5154	99.2438	-0.0592	0.0182	-0.0073	-0.0462	0.0165	0.9585
22.58	-0.74518	680.7778	46.4059	-263.1743	-47.7283	698.2676	9.909	73.14	-0.11421	25.8689	-3.0249	65.5708	-0.0592	0.0182	-0.0073	-0.0462	0.0165	0.9585
22.5925	1.2194	725.5981	52.1275	-279.9627	-52.5857	739.1756	5.8226	43.6784	0.52952	15.4723	-2.2231	39.3226	-0.0592	0.0182	-0.0073	-0.0462	0.0165	0.9585
22.605	2.8136	764.5144	57.1059	-294.4937	-56.804	773.8254	2.6754	22.2933	0.77478	7.9255	-1.3968	20.2596	-0.0592	0.0182	-0.0073	-0.0462	0.0165	0.9585
22.6175	4.0892	795.5639	60.9498	-306.0579	-59.9586	800.3723	0.51192	8.0887	0.79081	2.9142	-0.69931	7.5832	-0.0592	0.0182	-0.0073	-0.0462	0.0165	0.9585
22.63	5.1237	817.3129	63.5125	-314.1276	-61.8635	817.5246	-0.80938	-0.26627	0.67831	-0.031682	-0.16825	0.11401	-0.0592	0.0182	-0.0073	-0.0462	0.0165	0.9585
